<?xml version="1.0" encoding="UTF-8" standalone="no"?>
<!DOCTYPE svg PUBLIC "-//W3C//DTD SVG 1.1//EN" "http://www.w3.org/Graphics/SVG/1.1/DTD/svg11.dtd">
<!-- Created with Vectornator (http://vectornator.io/) -->
<svg height="100%" stroke-miterlimit="10" style="fill-rule:nonzero;clip-rule:evenodd;stroke-linecap:round;stroke-linejoin:round;" version="1.1" viewBox="0 0 500 500" width="100%" xml:space="preserve" xmlns="http://www.w3.org/2000/svg" xmlns:xlink="http://www.w3.org/1999/xlink">
<defs/>
<g id="Layer-1">
<path d="M64.9004 249.9C64.9004 147.728 147.728 64.9004 249.9 64.9004C352.073 64.9004 434.9 147.728 434.9 249.9C434.9 352.073 352.073 434.9 249.9 434.9C147.728 434.9 64.9004 352.073 64.9004 249.9Z" fill="#1e90ff" fill-opacity="0.5" fill-rule="nonzero" opacity="1" stroke="none"/>
<path d="M75 250C75 153.35 153.35 75 250 75C346.65 75 425 153.35 425 250C425 346.65 346.65 425 250 425C153.35 425 75 346.65 75 250Z" fill="#1e90ff" fill-rule="nonzero" opacity="1" stroke="none"/>
<path d="M172.67 331.033L206.609 168.967L274.597 168.967C288.011 168.967 298.181 170.091 305.109 172.339C312.037 174.587 317.472 178.806 321.415 184.997C325.358 191.187 327.33 199 327.33 208.433C327.33 221.626 323.018 232.57 314.395 241.267C305.772 249.963 291.843 255.601 272.607 258.181C278.503 262.529 282.962 266.804 285.984 271.004C292.764 280.512 298.218 290.351 302.345 300.521L314.727 331.033L290.517 331.033L278.909 300.853C274.708 289.945 269.917 280.512 264.537 272.552C260.852 267.025 257.094 263.395 253.261 261.663C249.429 259.931 243.201 259.065 234.578 259.065L209.373 259.065L194.338 331.033L172.67 331.033ZM213.021 241.488L242.98 241.488C256.836 241.488 265.864 241.303 270.065 240.935C278.245 240.124 284.952 238.282 290.185 235.407C295.418 232.533 299.471 228.664 302.345 223.8C305.22 218.935 306.657 213.703 306.657 208.102C306.657 203.385 305.588 199.276 303.451 195.775C301.314 192.275 298.513 189.898 295.049 188.645C291.585 187.392 285.689 186.765 277.361 186.765L224.518 186.765L213.021 241.488Z" fill="#ffffff" fill-rule="nonzero" opacity="1" stroke="none"/>
</g>
</svg>
